HIERARCHY
ROOT Hips
{
	OFFSET -0.001795 -0.223333 0.028219
	CHANNELS 6 Xposition Yposition Zposition Zrotation Yrotation Xrotation
	JOINT LeftUpLeg
	{
		OFFSET 0.069520 -0.091406 -0.006815
		CHANNELS 3 Zrotation Yrotation Xrotation
		JOINT LeftLeg
		{
			OFFSET 0.034277 -0.375199 -0.004496
			CHANNELS 3 Zrotation Yrotation Xrotation
			JOINT LeftFoot
			{
				OFFSET -0.013596 -0.397961 -0.043693
				CHANNELS 3 Zrotation Yrotation Xrotation
				JOINT LeftToe
				{
					OFFSET 0.026358 -0.055791 0.119288
					CHANNELS 3 Zrotation Yrotation Xrotation
					End Site
					{
						OFFSET 0.000000 0.000000 0.000000
					}
				}
			}
		}
	}
	JOINT RightUpLeg
	{
		OFFSET -0.067670 -0.090522 -0.004320
		CHANNELS 3 Zrotation Yrotation Xrotation
		JOINT RightLeg
		{
			OFFSET -0.038290 -0.382569 -0.008850
			CHANNELS 3 Zrotation Yrotation Xrotation
			JOINT RightFoot
			{
				OFFSET 0.015774 -0.398415 -0.042312
				CHANNELS 3 Zrotation Yrotation Xrotation
				JOINT RightToe
				{
					OFFSET -0.025372 -0.048144 0.123348
					CHANNELS 3 Zrotation Yrotation Xrotation
					End Site
					{
						OFFSET 0.000000 0.000000 0.000000
					}
				}
			}
		}
	}
	JOINT Spine
	{
		OFFSET -0.002533 0.108963 -0.026696
		CHANNELS 3 Zrotation Yrotation Xrotation
		JOINT Spine1
		{
			OFFSET 0.005487 0.135180 0.001092
			CHANNELS 3 Zrotation Yrotation Xrotation
			JOINT Spine2
			{
				OFFSET 0.001457 0.052922 0.025425
				CHANNELS 3 Zrotation Yrotation Xrotation
				JOINT Neck
				{
					OFFSET -0.002778 0.213870 -0.042857
					CHANNELS 3 Zrotation Yrotation Xrotation
					JOINT Head
					{
						OFFSET 0.005152 0.064970 0.051349
						CHANNELS 3 Zrotation Yrotation Xrotation
						End Site
						{
							OFFSET 0.000000 0.000000 0.000000
						}
					}
				}
				JOINT LeftShoulder
				{
					OFFSET 0.078845 0.121749 -0.034090
					CHANNELS 3 Zrotation Yrotation Xrotation
					JOINT LeftArm
					{
						OFFSET 0.090977 0.030469 -0.008868
						CHANNELS 3 Zrotation Yrotation Xrotation
						JOINT LeftForeArm
						{
							OFFSET 0.259612 -0.012772 -0.027456
							CHANNELS 3 Zrotation Yrotation Xrotation
							JOINT LeftHand
							{
								OFFSET 0.249234 0.008986 -0.001171
								CHANNELS 3 Zrotation Yrotation Xrotation
								End Site
								{
									OFFSET 0.000000 0.000000 0.000000
								}
							}
						}
					}
				}
				JOINT RightShoulder
				{
					OFFSET -0.081759 0.118833 -0.038615
					CHANNELS 3 Zrotation Yrotation Xrotation
					JOINT RightArm
					{
						OFFSET -0.096012 0.032551 -0.009143
						CHANNELS 3 Zrotation Yrotation Xrotation
						JOINT RightForeArm
						{
							OFFSET -0.253742 -0.013329 -0.021401
							CHANNELS 3 Zrotation Yrotation Xrotation
							JOINT RightHand
							{
								OFFSET -0.255298 0.007772 -0.005559
								CHANNELS 3 Zrotation Yrotation Xrotation
								End Site
								{
									OFFSET 0.000000 0.000000 0.000000
								}
							}
						}
					}
				}
			}
		}
	}
}
MOTION
Frames: 7
Frame Time: 0.050000
-1.166264 0.857677 0.547204 -4.052178 11.668244 -10.161875 26.545647 -1.758394 2.884640 -0.976352 -1.444544 24.892250 -23.011752 -42.906890 6.782205 0.000000 0.000000 0.000000 -21.521495 -2.197600 -11.673125 14.854288 -5.364388 24.786104 -5.654140 -14.540798 13.840735 0.000000 0.000000 0.000000 -3.878353 -0.246104 9.043117 10.812815 -2.874316 -16.850720 -1.547859 -4.752549 19.664425 9.218856 -7.883438 -3.530469 0.000000 0.000000 0.000000 -19.236402 -10.799917 3.827006 -40.899766 -41.056861 7.685468 117.595468 -81.651529 -104.924485 0.000000 0.000000 0.000000 14.341823 8.865102 3.975434 26.345636 25.015102 0.837001 -73.527395 21.330121 -12.170352 0.000000 0.000000 0.000000
-1.195853 0.863290 0.555670 -3.684699 12.831559 -9.612626 27.483796 -2.072927 3.101432 -2.962683 -0.711753 22.785672 -18.628724 -30.535885 9.027496 0.000000 0.000000 0.000000 -20.595574 -2.072219 -11.187175 16.102027 -5.821819 23.568051 -6.753751 -16.373549 13.101652 0.000000 0.000000 0.000000 -4.274058 -0.220632 8.743009 10.609671 -2.737559 -17.044215 -2.016784 -4.856708 19.657773 10.107106 -8.949658 -2.425746 0.000000 0.000000 0.000000 -18.676931 -10.862249 3.695407 -41.130373 -40.302956 7.474469 120.091824 -80.960816 -107.132312 0.000000 0.000000 0.000000 14.464314 8.406812 3.883494 25.090470 23.692795 0.448190 -72.854043 22.017772 -12.421859 0.000000 0.000000 0.000000
-1.222326 0.864458 0.562545 -3.121900 13.765482 -9.151176 28.103255 -2.255100 2.959682 -7.144154 0.444173 22.225528 -8.644120 -11.832886 7.544543 0.000000 0.000000 0.000000 -19.987504 -2.038261 -11.250346 16.930729 -6.283981 23.588896 -7.290135 -17.328966 10.904536 0.000000 0.000000 0.000000 -3.983301 -0.238606 9.021341 10.415559 -2.711305 -16.453614 -2.490960 -5.668552 18.609124 9.201780 -8.238643 -1.842022 0.000000 0.000000 0.000000 -20.029140 -10.626227 3.595126 -39.729188 -38.763313 6.668834 126.027603 -80.271026 -112.901959 0.000000 0.000000 0.000000 15.069224 9.336103 4.296395 24.124460 22.851179 0.302979 -73.721538 22.608555 -13.268794 0.000000 0.000000 0.000000
-1.243529 0.865895 0.568035 -2.716727 14.175888 -9.067878 28.540175 -2.425857 3.272563 -10.720192 1.365487 21.601979 -0.869096 2.623568 7.659987 0.000000 0.000000 0.000000 -18.724143 -1.847664 -11.279745 16.636119 -6.270910 23.727461 -7.955856 -18.634196 9.357455 0.000000 0.000000 0.000000 -3.731558 -0.258281 9.304964 9.976862 -2.520748 -16.593680 -2.542027 -5.690913 19.140043 8.723608 -7.936106 -1.447889 0.000000 0.000000 0.000000 -21.209308 -11.353061 3.939570 -38.462514 -37.799732 6.012235 125.256615 -79.739027 -111.666667 0.000000 0.000000 0.000000 16.108539 9.214268 4.378376 22.093990 22.055181 -0.038036 -74.940218 23.952276 -14.651428 0.000000 0.000000 0.000000
-1.259193 0.865493 0.571943 -2.398387 14.937157 -9.316684 28.487415 -2.542151 3.488799 -13.766855 2.064436 21.785359 5.918101 13.635226 6.555189 0.000000 0.000000 0.000000 -18.300199 -1.851277 -11.313111 16.979505 -6.736319 24.803457 -8.350155 -19.476368 7.988543 0.000000 0.000000 0.000000 -3.613862 -0.297967 10.089847 9.763663 -2.491704 -16.043232 -2.837732 -6.114386 18.568736 7.724408 -7.137157 -0.861329 0.000000 0.000000 0.000000 -22.479635 -11.570198 4.031691 -37.447789 -36.933254 5.583771 123.644021 -79.034699 -109.366957 0.000000 0.000000 0.000000 16.031720 10.439434 4.970230 21.343772 20.633009 -0.231112 -75.866009 25.407853 -16.127063 0.000000 0.000000 0.000000
-1.270170 0.865901 0.574180 -2.121225 14.894241 -9.383807 28.511695 -2.756243 4.685296 -17.680589 2.913270 20.302803 11.842697 22.803105 5.953901 0.000000 0.000000 0.000000 -17.485107 -1.712340 -11.460086 16.491080 -6.630330 25.284635 -8.522444 -19.947033 6.778643 0.000000 0.000000 0.000000 -3.625636 -0.304824 10.321458 9.630999 -2.497465 -15.612112 -2.743319 -5.496394 18.604801 7.075961 -6.661145 -0.165223 0.000000 0.000000 0.000000 -23.808433 -11.902848 4.046774 -37.146872 -36.753613 5.518159 120.134232 -78.601068 -105.368384 0.000000 0.000000 0.000000 17.037998 10.225317 5.064954 20.193025 19.665944 -0.458646 -77.878840 27.332642 -18.201233 0.000000 0.000000 0.000000
-1.277672 0.864884 0.574905 -2.315405 15.627839 -9.498546 28.508382 -2.867522 4.741063 -19.128344 3.117712 19.819697 14.812429 27.187080 5.270838 0.000000 0.000000 0.000000 -17.326721 -1.765819 -11.676995 17.189188 -7.182930 25.930928 -8.811336 -20.515958 6.592116 0.000000 0.000000 0.000000 -3.560337 -0.324964 10.529522 9.987005 -2.626508 -15.497054 -3.224876 -5.795649 18.272030 7.098480 -6.818439 0.451621 0.000000 0.000000 0.000000 -25.021035 -12.077231 4.065533 -36.846678 -36.458328 5.436878 114.478142 -78.512498 -99.358520 0.000000 0.000000 0.000000 17.095061 10.818938 5.400566 20.563048 18.585728 -0.558433 -79.534052 29.085808 -20.139074 0.000000 0.000000 0.000000
